<svg 
      xmlns="http://www.w3.org/2000/svg" 
      viewBox="0 0 24 24" 
      fill="currentColor" 
      width="48px" 
      height="48px"
      class="download-icon"
    >
      <!-- Downward arrow -->
      <path d="M12 2C12.5523 2 13 2.44772 13 3V13.5858L16.2929 10.2929C16.6834 9.90237 17.3166 9.90237 17.7071 10.2929C18.0976 10.6834 18.0976 11.3166 17.7071 11.7071L12.7071 16.7071C12.3166 17.0976 11.6834 17.0976 11.2929 16.7071L6.29289 11.7071C5.90237 11.3166 5.90237 10.6834 6.29289 10.2929C6.68342 9.90237 7.31658 9.90237 7.70711 10.2929L11 13.5858V3C11 2.44772 11.4477 2 12 2Z" />
      <!-- Horizontal line (for the download tray) -->
      <path d="M4 20C3.44772 20 3 20.4477 3 21C3 21.5523 3.44772 22 4 22H20C20.5523 22 21 21.5523 21 21C21 20.4477 20.5523 20 20 20H4Z" />
    </svg>